<svg xmlns="http://www.w3.org/2000/svg" xmlns:xlink="http://www.w3.org/1999/xlink" viewBox="0 0 44 36.25" version="1.1" x="0px" y="0px"><title>card</title><desc>Created with Sketch.</desc><g stroke="none" stroke-width="1" fill="none" fill-rule="evenodd"><g transform="translate(-248.000000, -170.000000)" fill="#000000"><path d="M250,180.9961 L289.981,180.9961 L289.981,194.9421 C289.981,196.0451 289.084,196.9421 287.981,196.9421 L252,196.9421 C250.897,196.9421 250,196.0451 250,194.9421 L250,180.9961 Z M250,174.0001 C250,172.8971 250.897,172.0001 252,172.0001 L287.981,172.0001 C289.084,172.0001 289.981,172.8971 289.981,174.0001 L289.981,178.9961 L250,178.9961 L250,174.0001 Z M252,198.9421 L287.981,198.9421 C290.188,198.9421 291.981,197.1471 291.981,194.9421 L291.981,174.0001 C291.981,171.7941 290.188,170.0001 287.981,170.0001 L252,170.0001 C249.794,170.0001 248,171.7941 248,174.0001 L248,194.9421 C248,197.1471 249.794,198.9421 252,198.9421 Z M254.8604,192.4453 L261.5614,192.4453 C262.1144,192.4453 262.5614,191.9973 262.5614,191.4453 C262.5614,190.8933 262.1144,190.4453 261.5614,190.4453 L254.8604,190.4453 C254.3074,190.4453 253.8604,190.8933 253.8604,191.4453 C253.8604,191.9973 254.3074,192.4453 254.8604,192.4453 Z M254.8604,187.3872 L267.0254,187.3872 C267.5784,187.3872 268.0254,186.9392 268.0254,186.3872 C268.0254,185.8352 267.5784,185.3872 267.0254,185.3872 L254.8604,185.3872 C254.3074,185.3872 253.8604,185.8352 253.8604,186.3872 C253.8604,186.9392 254.3074,187.3872 254.8604,187.3872 Z M278.4648,187.3872 L282.4528,187.3872 C283.2958,187.3872 283.9818,188.0732 283.9818,188.9162 C283.9818,189.7592 283.2958,190.4452 282.4528,190.4452 L278.4648,190.4452 C277.6218,190.4452 276.9358,189.7592 276.9358,188.9162 C276.9358,188.0732 277.6218,187.3872 278.4648,187.3872 Z M278.4648,192.4452 L282.4528,192.4452 C284.3988,192.4452 285.9818,190.8622 285.9818,188.9162 C285.9818,186.9702 284.3988,185.3872 282.4528,185.3872 L278.4648,185.3872 C276.5188,185.3872 274.9358,186.9702 274.9358,188.9162 C274.9358,190.8622 276.5188,192.4452 278.4648,192.4452 Z"/></g></g><text x="0" y="44" fill="#000000" font-size="5px" font-weight="bold" font-family="'Helvetica Neue', Helvetica, Arial-Unicode, Arial, Sans-serif">Created by Michael Zenaty</text><text x="0" y="49" fill="#000000" font-size="5px" font-weight="bold" font-family="'Helvetica Neue', Helvetica, Arial-Unicode, Arial, Sans-serif">from the Noun Project</text></svg>