<svg xmlns="http://www.w3.org/2000/svg" xmlns:xlink="http://www.w3.org/1999/xlink" viewBox="0 0 24 30" version="1.1" x="0px" y="0px"><title>kanban</title><desc>Created with Sketch.</desc><g stroke="none" stroke-width="1" fill="none" fill-rule="evenodd"><g fill="#000000"><path d="M2.5,2 L7.5,2 C7.77614237,2 8,2.22385763 8,2.5 L8,20.5 C8,20.7761424 7.77614237,21 7.5,21 L2.5,21 C2.22385763,21 2,20.7761424 2,20.5 L2,2.5 C2,2.22385763 2.22385763,2 2.5,2 Z M3.2,3 C3.08954305,3 3,3.08954305 3,3.2 L3,4.8 C3,4.91045695 3.08954305,5 3.2,5 L6.8,5 C6.91045695,5 7,4.91045695 7,4.8 L7,3.2 C7,3.08954305 6.91045695,3 6.8,3 L3.2,3 Z M3.2,6 C3.08954305,6 3,6.08954305 3,6.2 L3,7.8 C3,7.91045695 3.08954305,8 3.2,8 L6.8,8 C6.91045695,8 7,7.91045695 7,7.8 L7,6.2 C7,6.08954305 6.91045695,6 6.8,6 L3.2,6 Z M3.2,9 C3.08954305,9 3,9.08954305 3,9.2 L3,10.8 C3,10.9104569 3.08954305,11 3.2,11 L6.8,11 C6.91045695,11 7,10.9104569 7,10.8 L7,9.2 C7,9.08954305 6.91045695,9 6.8,9 L3.2,9 Z M3.2,12 C3.08954305,12 3,12.0895431 3,12.2 L3,13.8 C3,13.9104569 3.08954305,14 3.2,14 L6.8,14 C6.91045695,14 7,13.9104569 7,13.8 L7,12.2 C7,12.0895431 6.91045695,12 6.8,12 L3.2,12 Z M3.2,15 C3.08954305,15 3,15.0895431 3,15.2 L3,16.8 C3,16.9104569 3.08954305,17 3.2,17 L6.8,17 C6.91045695,17 7,16.9104569 7,16.8 L7,15.2 C7,15.0895431 6.91045695,15 6.8,15 L3.2,15 Z M3.2,18 C3.08954305,18 3,18.0895431 3,18.2 L3,19.8 C3,19.9104569 3.08954305,20 3.2,20 L6.8,20 C6.91045695,20 7,19.9104569 7,19.8 L7,18.2 C7,18.0895431 6.91045695,18 6.8,18 L3.2,18 Z"/><path d="M9.5,2 L14.5,2 C14.7761424,2 15,2.22385763 15,2.5 L15,14.5 C15,14.7761424 14.7761424,15 14.5,15 L9.5,15 C9.22385763,15 9,14.7761424 9,14.5 L9,2.5 C9,2.22385763 9.22385763,2 9.5,2 Z M10.2,3 C10.0895431,3 10,3.08954305 10,3.2 L10,4.8 C10,4.91045695 10.0895431,5 10.2,5 L13.8,5 C13.9104569,5 14,4.91045695 14,4.8 L14,3.2 C14,3.08954305 13.9104569,3 13.8,3 L10.2,3 Z M10.2,6 C10.0895431,6 10,6.08954305 10,6.2 L10,7.8 C10,7.91045695 10.0895431,8 10.2,8 L13.8,8 C13.9104569,8 14,7.91045695 14,7.8 L14,6.2 C14,6.08954305 13.9104569,6 13.8,6 L10.2,6 Z M10.2,9 C10.0895431,9 10,9.08954305 10,9.2 L10,10.8 C10,10.9104569 10.0895431,11 10.2,11 L13.8,11 C13.9104569,11 14,10.9104569 14,10.8 L14,9.2 C14,9.08954305 13.9104569,9 13.8,9 L10.2,9 Z M10.2,12 C10.0895431,12 10,12.0895431 10,12.2 L10,13.8 C10,13.9104569 10.0895431,14 10.2,14 L13.8,14 C13.9104569,14 14,13.9104569 14,13.8 L14,12.2 C14,12.0895431 13.9104569,12 13.8,12 L10.2,12 Z"/><path d="M16.5,2 L21.5,2 C21.7761424,2 22,2.22385763 22,2.5 L22,17.5 C22,17.7761424 21.7761424,18 21.5,18 L16.5,18 C16.2238576,18 16,17.7761424 16,17.5 L16,2.5 C16,2.22385763 16.2238576,2 16.5,2 Z M17.2,3 C17.0895431,3 17,3.08954305 17,3.2 L17,4.8 C17,4.91045695 17.0895431,5 17.2,5 L20.8,5 C20.9104569,5 21,4.91045695 21,4.8 L21,3.2 C21,3.08954305 20.9104569,3 20.8,3 L17.2,3 Z M17.2,6 C17.0895431,6 17,6.08954305 17,6.2 L17,7.8 C17,7.91045695 17.0895431,8 17.2,8 L20.8,8 C20.9104569,8 21,7.91045695 21,7.8 L21,6.2 C21,6.08954305 20.9104569,6 20.8,6 L17.2,6 Z M17.2,9 C17.0895431,9 17,9.08954305 17,9.2 L17,10.8 C17,10.9104569 17.0895431,11 17.2,11 L20.8,11 C20.9104569,11 21,10.9104569 21,10.8 L21,9.2 C21,9.08954305 20.9104569,9 20.8,9 L17.2,9 Z M17.2,12 C17.0895431,12 17,12.0895431 17,12.2 L17,13.8 C17,13.9104569 17.0895431,14 17.2,14 L20.8,14 C20.9104569,14 21,13.9104569 21,13.8 L21,12.2 C21,12.0895431 20.9104569,12 20.8,12 L17.2,12 Z M17.2,15 C17.0895431,15 17,15.0895431 17,15.2 L17,16.8 C17,16.9104569 17.0895431,17 17.2,17 L20.8,17 C20.9104569,17 21,16.9104569 21,16.8 L21,15.2 C21,15.0895431 20.9104569,15 20.8,15 L17.2,15 Z"/></g></g><text x="0" y="39" fill="#000000" font-size="5px" font-weight="bold" font-family="'Helvetica Neue', Helvetica, Arial-Unicode, Arial, Sans-serif">Created by Vignesh Nandha Kumar</text><text x="0" y="44" fill="#000000" font-size="5px" font-weight="bold" font-family="'Helvetica Neue', Helvetica, Arial-Unicode, Arial, Sans-serif">from the Noun Project</text></svg>