<svg xmlns="http://www.w3.org/2000/svg" data-name="Layer 1" viewBox="0 0 100 125" x="0px" y="0px"><title>Artboard 9</title><path d="M99.19,34.69a14.05,14.05,0,0,0-13-10.82l-.76,0H84.06l.11-.08a12.22,12.22,0,0,0-5.63-21.2,12.48,12.48,0,0,0-6.78.52,12,12,0,0,0-5.51,4.12,12.45,12.45,0,0,0-2.38,6.41,12.27,12.27,0,0,0,3.4,9.49c.21.21.44.4.66.6h-.07a15.25,15.25,0,0,0-1.64.12,13.85,13.85,0,0,0-9.49,5.8c-.16.22-.3.44-.44.68s-.28.46-.38.64l-1.29,2.26L53.4,35.33l-4.51-2.71-1.68-1a9,9,0,0,0-2.37-1.1,7.35,7.35,0,0,0-9,5.13,7.29,7.29,0,0,0,2.34,7.53,8.16,8.16,0,0,0,1.06.74l.78.46L43,46.2l5.92,3.51,1.44.85.71.42.35.21.49.26a8.11,8.11,0,0,0,8.23-.57,7.62,7.62,0,0,0,1.53-1.38l.32-.38.23-.3.45-.6.18-.25c.12,4.77.26,8.94.41,12.52a1.37,1.37,0,0,0,2.74,0c.2-4.9.38-10.89.54-18.07a1.9,1.9,0,0,0-3.36-1.25l-.05.06L59.5,45.69l-.48.58-.24.29-.18.19a3.5,3.5,0,0,1-.77.63,3.83,3.83,0,0,1-1.91.59,3.76,3.76,0,0,1-2-.46l-.23-.13-.35-.22-.7-.44-1.41-.89-5.83-3.67-3-1.89-.76-.48a3,3,0,0,1-.42-.31A2.41,2.41,0,0,1,40.56,37a2.34,2.34,0,0,1,2.9-1.58A22.19,22.19,0,0,1,46.23,37L53,41.22l.06,0a2.61,2.61,0,0,0,3.58-.94l0,0,2.6-4.44,1.31-2.24c.12-.21.21-.34.29-.48a4.3,4.3,0,0,1,.28-.41,8.59,8.59,0,0,1,5.84-3.51,9.93,9.93,0,0,1,1-.07h2.15a4.82,4.82,0,0,0,3.21-8.06,4.9,4.9,0,0,0-.55-.52l-.3-.22-.15-.1c-.13-.1-.27-.18-.39-.28a7.19,7.19,0,0,1-.71-.64A6.8,6.8,0,0,1,69.34,14a7,7,0,0,1,1.32-3.57,6.49,6.49,0,0,1,3-2.25,7.06,7.06,0,0,1,3.81-.31,6.87,6.87,0,0,1,3.22,11.87,7.43,7.43,0,0,1-.75.58l-.25.17-.28.23A4.7,4.7,0,0,0,82,29a9.05,9.05,0,0,0,.91,0h2.56L86,29a9,9,0,0,1,6.77,3.43,9.19,9.19,0,0,1,1.7,3.41,8.62,8.62,0,0,1,.28,1.88c0,.28,0,.73,0,1.11V40L95,57.59a2.73,2.73,0,0,1-1.17,2,2.84,2.84,0,0,1-2.22.43,2.93,2.93,0,0,1-2.24-2.34,1.51,1.51,0,0,1,0-.28l0-.14V57l0-.89c-.13-4.71-.27-8.92-.42-12.54a1.34,1.34,0,0,0-2.67,0c-.15,3.62-.29,7.83-.42,12.54l0,.89v.53a4.53,4.53,0,0,0,0,.62,6.56,6.56,0,0,0,.78,2.39,6.69,6.69,0,0,0,4.05,3.19,6.8,6.8,0,0,0,8.52-5.55,21.61,21.61,0,0,0,.11-2.41l0-2.15.07-4.41.13-9.2V38.82c0-.41,0-.75,0-1.27A13.38,13.38,0,0,0,99.19,34.69ZM69.36,24.84l0,0Zm.37-1.16h0Zm13.09,1.08Z"/><path d="M58.32,80.08a11.46,11.46,0,0,0-2.64-14.24,11.5,11.5,0,0,0-15,0,11.72,11.72,0,0,0-3.89,6.78A11.21,11.21,0,0,0,41.5,83.88c-.24,0-.47,0-.71.07a10.65,10.65,0,0,0-5.3,2.38A10,10,0,0,0,33.28,89c-.15-.25-.29-.5-.46-.74a10.75,10.75,0,0,0-4.92-3.76,11.29,11.29,0,0,0-2.85-.65A11.49,11.49,0,1,0,10.31,66.23a11.61,11.61,0,0,0-3.64,7.47,11.28,11.28,0,0,0,4.68,10.11,11.18,11.18,0,0,0-2.91.66,10.71,10.71,0,0,0-4.9,3.76,10.18,10.18,0,0,0-1.88,5,7.48,7.48,0,0,0,0,1.19l0,.56,0,.47.17,1.76c0,.31.68.54,1.44.52s1.21-.24,1.24-.52a27.89,27.89,0,0,1,.43-3.44,7.2,7.2,0,0,1,1.66-3.09,7,7,0,0,1,3.26-2,6.64,6.64,0,0,1,2-.25h.48a4.25,4.25,0,0,0,.72-.1,4.37,4.37,0,0,0,1.37-.56,4.53,4.53,0,0,0,1.88-5.37A4.62,4.62,0,0,0,15.57,81a4.89,4.89,0,0,0-.54-.56l-.3-.24-.2-.15A6.61,6.61,0,0,1,13,78.43a6.25,6.25,0,0,1,1-8.21,6.17,6.17,0,0,1,8.35,0,6.32,6.32,0,0,1,1,8.21A6.61,6.61,0,0,1,21.83,80s-.3.21-.48.38a4.69,4.69,0,0,0-.55.56A4.61,4.61,0,0,0,20,82.3a4.55,4.55,0,0,0,1.85,5.4,4.42,4.42,0,0,0,1.37.57,4.34,4.34,0,0,0,.73.11h.5a6.69,6.69,0,0,1,2,.25,7,7,0,0,1,3.25,2,7.19,7.19,0,0,1,1.66,3.07,27.28,27.28,0,0,1,.43,3.43c0,.32.7.56,1.47.53s1.25-.25,1.28-.53l.17-1.76,0-.47v-.57a6.44,6.44,0,0,0,0-.74,7.55,7.55,0,0,1,3.1-4.19,7,7,0,0,1,3.42-1.13c.16,0,.32,0,.48,0H42a5.68,5.68,0,0,0,.59,0,4.41,4.41,0,0,0,2.41-1,4.49,4.49,0,0,0,1.2-5.11,4.57,4.57,0,0,0-.75-1.21,4.68,4.68,0,0,0-.5-.5l-.27-.22L44.51,80a6.86,6.86,0,0,1-.76-.67,6.59,6.59,0,0,1-1.18-1.67A6.33,6.33,0,0,1,42,73.63,6.54,6.54,0,0,1,44.24,70a6.18,6.18,0,0,1,7.92,0,6.25,6.25,0,0,1,2.15,3.59,6.35,6.35,0,0,1-.52,4.08,6.59,6.59,0,0,1-1.18,1.67,6.82,6.82,0,0,1-.76.67s-.26.18-.43.34a4.62,4.62,0,0,0-1.27,1.73,4.51,4.51,0,0,0,1.18,5.14,4.42,4.42,0,0,0,2.41,1.07,5.22,5.22,0,0,0,.61,0h.24c.16,0,.32,0,.47,0a7,7,0,0,1,3.41,1.12,7.55,7.55,0,0,1,3.14,4.34c0,.2,0,.4,0,.6l0,.56,0,.47.17,1.76c0,.31.68.54,1.44.52s1.21-.24,1.24-.52A27.89,27.89,0,0,1,65,93.75a7.2,7.2,0,0,1,1.66-3.09,7,7,0,0,1,3.26-2,6.64,6.64,0,0,1,2-.25h.48a4.25,4.25,0,0,0,.72-.1,4.37,4.37,0,0,0,1.37-.56,4.53,4.53,0,0,0,1.88-5.37A4.62,4.62,0,0,0,75.57,81a4.89,4.89,0,0,0-.54-.56l-.3-.24-.2-.15A6.61,6.61,0,0,1,73,78.43a6.25,6.25,0,0,1,1-8.21,6.17,6.17,0,0,1,8.35,0,6.32,6.32,0,0,1,1,8.21A6.61,6.61,0,0,1,81.84,80s-.3.21-.48.38a4.69,4.69,0,0,0-.55.56A4.61,4.61,0,0,0,80,82.3a4.55,4.55,0,0,0,1.85,5.4,4.42,4.42,0,0,0,1.37.57,4.34,4.34,0,0,0,.73.11h.5a6.69,6.69,0,0,1,2,.25,7,7,0,0,1,3.25,2,7.19,7.19,0,0,1,1.66,3.07,27.28,27.28,0,0,1,.43,3.43c0,.32.7.56,1.47.53s1.25-.25,1.28-.53l.17-1.76,0-.47v-.57a7.62,7.62,0,0,0-.05-1.19,10.22,10.22,0,0,0-1.9-5,10.75,10.75,0,0,0-4.92-3.76,11.29,11.29,0,0,0-2.85-.65A11.49,11.49,0,1,0,70.32,66.23a11.61,11.61,0,0,0-3.64,7.47,11.28,11.28,0,0,0,4.68,10.11,11.18,11.18,0,0,0-2.91.66,10.71,10.71,0,0,0-4.9,3.76c-.16.23-.29.47-.44.7a10,10,0,0,0-2.25-2.65,10.68,10.68,0,0,0-5.32-2.37c-.21,0-.43,0-.64-.06A11.74,11.74,0,0,0,56.06,83,11.39,11.39,0,0,0,58.32,80.08Z"/><path d="M5.76,57.57a8.12,8.12,0,0,0,1.7.46,6.49,6.49,0,0,0,.87.09l.44,0h.32l4.76-.08c12.47-.23,23.15-.57,30.25-1,.51,0,.89-.7.86-1.47s-.4-1.25-.86-1.28c-7.1-.46-17.78-.81-30.25-1l-4.76-.08H8.8l-.17,0a1.91,1.91,0,0,1-.34,0,3.11,3.11,0,0,1-.64-.2,3,3,0,0,1-1.09-.79,3.17,3.17,0,0,1-.66-1.18,3.44,3.44,0,0,1-.11-.67V49.2l0-5.13c0-6.91.05-14,.08-21.16l0-10.67V10.91c0-.27,0-.34,0-.46a3.26,3.26,0,0,1,0-.34,2.94,2.94,0,0,1,.55-1.24,3,3,0,0,1,2.4-1.19c6.91-.06,13.59-.15,19.82-.27C41.18,7.18,51.86,6.83,59,6.36c.49,0,.87-.68.84-1.44S59.4,3.71,59,3.68c-7.1-.47-17.78-.82-30.25-1.05-6.23-.12-12.92-.21-19.82-.27A8.34,8.34,0,0,0,.62,9.08a8.63,8.63,0,0,0-.13,1c0,.32,0,.69,0,.86v1.32l0,10.67L.51,44.06l0,5.13v1l0,.46A8.57,8.57,0,0,0,1,52.48a8.29,8.29,0,0,0,1.85,3.1A8.07,8.07,0,0,0,5.76,57.57Z"/><text x="0" y="115" fill="#000000" font-size="5px" font-weight="bold" font-family="'Helvetica Neue', Helvetica, Arial-Unicode, Arial, Sans-serif">Created by Gregor Cresnar</text><text x="0" y="120" fill="#000000" font-size="5px" font-weight="bold" font-family="'Helvetica Neue', Helvetica, Arial-Unicode, Arial, Sans-serif">from the Noun Project</text></svg>