<svg xmlns="http://www.w3.org/2000/svg" xmlns:xlink="http://www.w3.org/1999/xlink" viewBox="0 0 100 125" version="1.1" x="0px" y="0px"><title>Estimate</title><desc>Created with Sketch.</desc><g stroke="none" stroke-width="1" fill="none" fill-rule="evenodd"><g fill="#000000"><rect x="39" y="43" width="22" height="3"/><rect x="39" y="53" width="22" height="3"/><rect transform="translate(45.000000, 50.000000) rotate(90.000000) translate(-45.000000, -50.000000) " x="34" y="48.5" width="22" height="3"/><rect transform="translate(55.000000, 50.000000) rotate(90.000000) translate(-55.000000, -50.000000) " x="44" y="48.5" width="22" height="3"/><path d="M56.3477713,14 L44.4585654,9.67268293 C41.8636758,8.72822038 38.9944641,10.0661558 38.0500015,12.6610453 L37.5626619,14 L40.7551952,14 L40.8690794,13.6871057 C41.2468644,12.6491499 42.3945491,12.1139758 43.4325049,12.4917608 L47.5763581,14 L56.3477713,14 Z M74,20.4248858 L80.166885,22.6694484 C82.7617745,23.6139109 84.0997099,26.4831227 83.1552473,29.0780122 L74,54.2318475 L74,45.4604343 L80.3361695,28.0519518 C80.7139545,27.013996 80.1787803,25.8663113 79.1408245,25.4885262 L74,23.6174191 L74,20.4248858 Z M62.4373381,86 L61.9499985,87.3389547 C61.0055359,89.9338442 58.1363242,91.2717796 55.5414346,90.3273171 L43.6522287,86 L52.4236419,86 L56.5674951,87.5082392 C57.6054509,87.8860242 58.7531356,87.3508501 59.1309206,86.3128943 L59.2448048,86 L62.4373381,86 Z M26,79.5751142 L19.833115,77.3305516 C17.2382255,76.3860891 15.9002901,73.5168773 16.8447527,70.9219878 L26,45.7681525 L26,54.5395657 L19.6638305,71.9480482 C19.2860455,72.986004 19.8212197,74.1336887 20.8591755,74.5114738 L26,76.3825809 L26,79.5751142 Z" fill-rule="nonzero"/><path d="M31,17 C29.8954305,17 29,17.8954305 29,19 L29,81 C29,82.1045695 29.8954305,83 31,83 L69,83 C70.1045695,83 71,82.1045695 71,81 L71,19 C71,17.8954305 70.1045695,17 69,17 L31,17 Z M31,14 L69,14 C71.7614237,14 74,16.2385763 74,19 L74,81 C74,83.7614237 71.7614237,86 69,86 L31,86 C28.2385763,86 26,83.7614237 26,81 L26,19 C26,16.2385763 28.2385763,14 31,14 Z" fill-rule="nonzero"/></g></g><text x="0" y="115" fill="#000000" font-size="5px" font-weight="bold" font-family="'Helvetica Neue', Helvetica, Arial-Unicode, Arial, Sans-serif">Created by Daniel Falk</text><text x="0" y="120" fill="#000000" font-size="5px" font-weight="bold" font-family="'Helvetica Neue', Helvetica, Arial-Unicode, Arial, Sans-serif">from the Noun Project</text></svg>